<svg xmlns="http://www.w3.org/2000/svg" viewBox="0 0 448.001 448.001" fill="#F6F6F6" style="enable-background:new 0 0 448.001 448.001" xml:space="preserve"><path d="M224.001 0C156.058.005 98.75 3.749 90.204 8.742 75.239 13.834 64.02 47.77 64.001 88v20h-4.084a9.87 9.87 0 0 0-1.637-2.504c1.726-1.895 2.717-4.625 2.721-7.496V88c0-5.523-3.582-9.999-8-10h-16c-4.418.001-8 4.477-8 10v10c.002 2.874.993 5.607 2.721 7.504-1.726 1.895-2.717 4.625-2.721 7.496v50c0 5.523 3.582 9.999 8 10h16c2.854-.005 5.491-1.91 6.918-5h4.082v90c.008 3.568 3.819 6.864 10 8.648v11.678c-8.824 1.139-14.992 5.117-15 9.674v100c.008 14.275 3.819 27.46 10 34.598v17.184a8.22 8.22 0 0 0 8.219 8.219h33.562a8.22 8.22 0 0 0 8.219-8.219V428h210v11.781A8.22 8.22 0 0 0 337.22 448h33.562a8.22 8.22 0 0 0 8.219-8.219v-17.197c6.179-7.135 9.99-20.314 10-34.584V288c-.011-4.555-6.179-8.531-15-9.67v-11.684c6.18-1.784 9.99-5.079 10-8.646v-90h4.082c1.427 3.09 4.064 4.995 6.918 5h16c4.418-.001 8-4.477 8-10v-50c-.004-2.871-.995-5.601-2.721-7.496 1.727-1.897 2.718-4.63 2.721-7.504V88c0-5.523-3.582-9.999-8-10h-16c-4.418.001-8 4.477-8 10v10c.004 2.871.995 5.601 2.721 7.496a9.896 9.896 0 0 0-1.637 2.504H384V88c-.013-40.451-11.346-74.512-26.406-79.357C348.443 3.695 291.417.006 224.001 0zM86.844 58h274.297a10.002 10.002 0 0 1 9.811 8.064c2.011 10.19 3.036 21.196 3.049 32.359V168c-.001 5.523-4.477 9.999-10 10h-280c-5.523-.001-9.999-4.477-10-10V98.428c.007-11.16 1.026-22.165 3.031-32.357A10 10 0 0 1 86.844 58zM99 278h21.428a5 5 0 0 1 4.994 4.727l3.57 65A5 5 0 0 1 124 353H99a5 5 0 0 1-5-5v-65c.001-2.761 2.24-5 5-5zm228.573 0H349a5 5 0 0 1 5 5v65a5 5 0 0 1-5 5h-25a5 5 0 0 1-4.992-5.273l3.57-65a5.002 5.002 0 0 1 4.995-4.727zM141.5 290h165a2.5 2.5 0 0 1 2.5 2.5v3a2.5 2.5 0 0 1-2.5 2.5h-165a2.5 2.5 0 0 1-2.5-2.5v-3a2.502 2.502 0 0 1 2.5-2.5zm1 18h163a2.5 2.5 0 0 1 2.5 2.5v3a2.5 2.5 0 0 1-2.5 2.5h-163a2.5 2.5 0 0 1-2.5-2.5v-3a2.502 2.502 0 0 1 2.5-2.5zm1 18h161a2.5 2.5 0 0 1 2.5 2.5v3a2.5 2.5 0 0 1-2.5 2.5h-161a2.5 2.5 0 0 1-2.5-2.5v-3a2.502 2.502 0 0 1 2.5-2.5zm1 18h159a2.5 2.5 0 0 1 2.5 2.5v3a2.5 2.5 0 0 1-2.5 2.5h-159a2.5 2.5 0 0 1-2.5-2.5v-3a2.502 2.502 0 0 1 2.5-2.5z"/></svg>